
<!-- Generator: Adobe Illustrator 21.1.0, SVG Export Plug-In . SVG Version: 6.00 Build 0)  -->
<svg version="1.1" id="图层_1" xmlns="http://www.w3.org/2000/svg" xmlns:xlink="http://www.w3.org/1999/xlink" x="0px" y="0px"
	 viewBox="0 0 260 260" style="enable-background:new 0 0 260 260;" xml:space="preserve">
<style type="text/css">
	.st0{fill:#70BA96;}
</style>
<path class="st0" d="M60.7,82.8c-19.1,0-34.5-15.5-34.5-34.5s15.5-34.5,34.5-34.5s34.5,15.5,34.5,34.5S79.7,82.8,60.7,82.8z
	 M60.7,25.4c-12.6,0-22.8,10.3-22.8,22.8s10.3,22.8,22.8,22.8s22.8-10.3,22.8-22.8S73.3,25.4,60.7,25.4z M216.7,155.2
	c-10.7,0-19.4-8.7-19.4-19.4s8.7-19.4,19.4-19.4s19.4,8.7,19.4,19.4C236.1,146.6,227.4,155.2,216.7,155.2z M216.7,128.2
	c-4.2,0-7.7,3.4-7.7,7.7c0,4.2,3.4,7.7,7.7,7.7s7.7-3.4,7.7-7.7C224.4,131.7,220.9,128.2,216.7,128.2z"/>
<path class="st0" d="M124.8,246.8H76.8L27.7,97.9l184.8-52l20.6,45.9l-108.4,41L124.8,246.8L124.8,246.8z M85.3,235.1h27.8V124.8
	l104.4-39.5L206,59.9l-163.3,46C42.7,105.9,85.3,235.1,85.3,235.1z"/>
<path class="st0" d="M197,246.3H166l9.8-62.4L132,168.3V134l98.9,32.7L197,246.3L197,246.3z M179.6,234.6h9.7l25.8-60.7l-71.5-23.6
	v9.9l45.1,16L179.6,234.6L179.6,234.6z"/>
</svg>