<?xml version="1.0" standalone="no"?><!DOCTYPE svg PUBLIC "-//W3C//DTD SVG 1.1//EN" "http://www.w3.org/Graphics/SVG/1.1/DTD/svg11.dtd"><svg t="1644928502666" class="icon" viewBox="0 0 1024 1024" version="1.1" xmlns="http://www.w3.org/2000/svg" p-id="2354" xmlns:xlink="http://www.w3.org/1999/xlink" width="260" height="260"><defs><style type="text/css"></style></defs><path d="M910.3 247.9c-13.2-31.8-32.4-59.4-57.2-82-26.1-23.9-57.6-41.5-93.7-52.4-87-26.3-154.9-1.4-196.6 24.1-21.3 13.1-38 27.6-49.8 39.4-11.7-11.8-28.4-26.3-49.8-39.4-41.7-25.5-109.6-50.5-196.6-24.1-36.1 10.9-67.6 28.5-93.7 52.4-24.7 22.6-44 50.2-57.2 82-15.7 37.8-22.3 81.1-19 125 3.3 43.8 16.4 88.3 37.9 128.7 18.1 33.9 49.3 75.6 93 124.1-11.5 22.4-9.4 50.5 7.6 71.2l22 26.8c12.9 15.7 31.6 23.8 50.5 23.8 14.6 0 29.2-4.8 41.4-14.8 27.8-22.8 31.9-64.1 9-91.9l-22-26.8c-17.5-21.3-45.6-28.6-70.4-20.7-41.5-46-70.7-84.7-87-115.3-36.8-68.9-43.1-147.8-16.8-210.9 21.7-52.2 62.9-88.7 119.1-105.8 55-16.6 106.9-10.6 154.4 18 36.6 22 56.9 49.8 57.1 50 4.7 6.6 12.2 10.6 20.3 10.6h0.1c8.1 0 15.6-3.9 20.3-10.5 0.2-0.3 20.6-28.1 57.2-50.1 47.5-28.6 99.4-34.6 154.4-18 56.3 17 97.5 53.6 119.1 105.8 26.2 63.1 19.9 142-16.8 210.9-34.5 64.7-121.8 160-259.5 283.3-14.9-10.6-33.1-16.8-52.7-16.8-50.3 0-91.2 40.9-91.2 91.2s40.9 91.2 91.2 91.2 91.2-40.9 91.2-91.2c0-12.6-2.6-24.5-7.2-35.4 143.2-128.1 234.8-228.6 272.3-298.8 21.5-40.4 34.6-84.9 37.9-128.7 3.4-43.8-3.1-87-18.8-124.9zM305.4 639.4l22 26.8c8.8 10.8 7.3 26.7-3.5 35.6-10.8 8.8-26.7 7.3-35.6-3.5l-22-26.8c-8.8-10.8-7.3-26.7 3.5-35.6 4.7-3.9 10.4-5.7 16-5.7 7.3 0 14.6 3.1 19.6 9.2zM535 887.1c-28.3 0-51.2-23-51.2-51.2s23-51.2 51.2-51.2 51.2 23 51.2 51.2-22.9 51.2-51.2 51.2z" fill="#70ba96" p-id="2355"></path><path d="M658.1 529.8c9.2 6.1 21.6 3.6 27.7-5.6 6.1-9.2 3.6-21.6-5.6-27.7-48.1-32-104.1-49-162.1-49-58.6 0-115.2 17.3-163.7 50-9.2 6.2-11.6 18.6-5.4 27.8 3.9 5.7 10.2 8.8 16.6 8.8 3.9 0 7.7-1.1 11.2-3.4 41.8-28.2 90.6-43.1 141.3-43.1 50.1 0 98.5 14.6 140 42.2zM584.2 583.6c10.7 2.9 21.6-3.4 24.5-14.1 2.9-10.7-3.4-21.6-14.1-24.5-24.8-6.7-50.5-10.1-76.5-10.1-31.9 0-63.2 5.1-93.2 15.1-10.5 3.5-16.1 14.9-12.6 25.3 2.8 8.4 10.6 13.6 19 13.6 2.1 0 4.3-0.3 6.4-1 25.8-8.7 52.9-13.1 80.4-13.1 22.4 0.1 44.7 3 66.1 8.8z" fill="#70ba96" p-id="2356"></path></svg>