<svg xmlns="http://www.w3.org/2000/svg" viewBox="0 0 24 24" width="80" height="80">
  <path fill="#e6a23c" d="M12 2C6.48 2 2 6.48 2 12s4.48 10 10 10 10-4.48 10-10S17.52 2 12 2zm1 15h-2v-6h2v6zm0-8h-2V7h2v2z"/>
</svg><?xml version="1.0" standalone="no"?><!DOCTYPE svg PUBLIC "-//W3C//DTD SVG 1.1//EN" "http://www.w3.org/Graphics/SVG/1.1/DTD/svg11.dtd"><svg t="1644928764347" class="icon" viewBox="0 0 1024 1024" version="1.1" xmlns="http://www.w3.org/2000/svg" p-id="4179" xmlns:xlink="http://www.w3.org/1999/xlink" width="260" height="260"><defs><style type="text/css"></style></defs><path d="M492.8 994.72c-249.6 0-392.64-72.32-405.44-79.04-22.4-10.56-46.24-24.96-54.08-51.2a72.8 72.8 0 0 1 12-59.68c42.24-66.72 120.48-92.48 160-101.44l-8-1.92A73.44 73.44 0 0 1 137.6 659.2c-37.76-82.08-4.16-204.48 0-216.8a182.56 182.56 0 0 1 176-141.12h3.84c66.72 0 152.64 35.52 176 135.68a507.52 507.52 0 0 1 16 82.4A61.6 61.6 0 0 1 528 481.28v-53.6a169.6 169.6 0 0 1 170.08-135.2h16.96a170.4 170.4 0 0 1 170.88 135.2v53.92a64 64 0 0 1 20.96 43.36 91.2 91.2 0 0 1-32.96 81.92 129.12 129.12 0 0 1-56.96 94.24V704c39.36 9.12 117.76 34.88 160 101.44a71.68 71.68 0 0 1 11.04 62.08 83.68 83.68 0 0 1-53.12 48c-20 12.32-141.44 78.08-440 79.04z m-176-640h-2.24c-5.28 0-104.32 2.24-126.72 100.48v1.6c0 1.12-32.96 114.08-2.4 180.64 3.68 7.68 5.12 8.48 23.2 12.64a213.44 213.44 0 0 1 32 9.28l16.96 6.56v82.88l-22.88 3.2c-0.96 0-101.6 13.6-144 81.6a25.44 25.44 0 0 0-5.76 16c0.8 2.72 5.28 8.64 26.24 18.56h1.28c1.28 0 139.36 73.12 380.96 73.12h4.16c305.92-1.12 411.84-71.04 412.96-71.68l5.28-2.88c16-6.08 23.04-12.8 24.48-16.96a24.96 24.96 0 0 0-5.44-16.96c-43.68-68.48-144-81.44-145.6-81.6l-24.48-2.4 1.6-83.2 17.6-6.4c39.52-15.04 40.96-69.12 40.96-69.6v-18.24l17.12-6.4c14.24-5.28 15.04-29.12 14.4-34.88a14.72 14.72 0 0 0-2.72-8.48l-18.56-4.16v-80a116.96 116.96 0 0 0-118.4-91.36h-17.44a116.16 116.16 0 0 0-117.6 91.2v80l-18.56 4.16a16 16 0 0 0-2.72 8.64c0 5.6 0 29.6 14.24 34.88l17.28 6.24v18.24s2.08 54.24 41.44 69.44l17.12 6.56v83.2l-23.2 3.36A266.08 266.08 0 0 0 528 789.28L512 800l-14.72-10.08a270.24 270.24 0 0 0-103.68-39.36l-23.2-3.04v-84.64l16.96-6.4a202.4 202.4 0 0 1 32.8-9.44c18.4-4.16 20-5.12 23.68-12.96 25.92-56.16 7.04-151.2-2.4-183.04v-1.6c-20.16-88.32-100.16-95.2-124.16-95.2z m106.56 347.2A322.88 322.88 0 0 1 512.8 736a319.04 319.04 0 0 1 84.8-32v-3.2a130.72 130.72 0 0 1-56.96-93.6A78.08 78.08 0 0 1 510.56 560a232 232 0 0 1-17.92 96A74.56 74.56 0 0 1 432 698.88l-8.48 1.92z" fill="#70ba96" p-id="4180"></path><path d="M512 330.56a50.24 50.24 0 0 1-35.36-14.24l-105.92-100.96a106.08 106.08 0 0 1 0-155.04A117.28 117.28 0 0 1 512 46.72a117.12 117.12 0 0 1 141.28 13.76 106.08 106.08 0 0 1 0 155.2l-105.92 100.8a51.36 51.36 0 0 1-35.36 14.08zM450.24 72A72.96 72.96 0 0 0 400 91.68a64 64 0 0 0 0 92.48l106.24 101.12a8.32 8.32 0 0 0 11.2 0L624 184.32a64 64 0 0 0 0-92.48 73.44 73.44 0 0 0-97.76-1.92l-14.24 12-14.08-12.16a72.64 72.64 0 0 0-47.68-17.76z" fill="#70ba96" p-id="4181"></path></svg>